# xmcd
#
# Track frame offsets:
#	150
#	26400
#	73267
#	89493
#	112921
#	133396
#	157676
#	185935
#	210183
#
# Disc length: 3457 seconds
#
# Revision: 0
# Processed by: cddbd v1.5.2PL0 Copyright (c) Steve Scherf et al.
# Submitted via: dBpowerAMP V4.0
#
DISCID=790d7f09
DTITLE=Ron Artis - Let's Get Out of This House
DYEAR=1900
DGENRE=
TTITLE0=Let's Get Out of This House
TTITLE1=Ain't Nothing Like The Blues
TTITLE2=I'll Getcha Going
TTITLE3=Blues From the South
TTITLE4=Let's Ride
TTITLE5=A Little Rock 'n' Roll
TTITLE6=A Journey Down South
TTITLE7=Country Boy
TTITLE8=Nothin' But the Blues
EXTD=Submitted by Joshua Ashurst
EXTT0=
EXTT1=
EXTT2=
EXTT3=
EXTT4=
EXTT5=
EXTT6=
EXTT7=
EXTT8=
PLAYORDER=
